<svg style="height: 0; width: 0;">
    <defs>
        <filter id="dilate_shape">
            <feMorphology operator="dilate" in="SourceGraphic" radius="2"/>
        </filter>
        <clipPath id="triangle-clip-path" clipPathUnits="objectBoundingBox">
            <path d="m.8192 1q.2338-0 .1293-.2028l-.3476-.6741q-.1046-.2028-.2091 0l-.3476.6741q-.1046.2028.1293.2028z"/>
        </clipPath>
        <clipPath id="triangle-upside-down-clip-path" clipPathUnits="objectBoundingBox">
            <path d="m.1808 0q-.2338 0-.1293.2028l.3476.6741q.1046.2028.2091 0l.3476-.6741q.1046-.2028-.1293-.2028z"/>
        </clipPath>
        <clipPath id="moon-clip-path" clipPathUnits="objectBoundingBox">
            <path d="m.5011.025a.4761.475 0 00-.4761.475.4761.475 0 00.4761.475.4761.475 0 00.4739-.4449.3187.318 0 01-.1276.027.3187.318 0 01-.3187-.318.3187.318 0 01.074-.2031.4761.475 0 00-.1016-.0111z"/>
        </clipPath>
        <clipPath id="moon-inverted-clip-path" clipPathUnits="objectBoundingBox">
            <path d="m.025.4989a.4761.475 270 00.475.4761.4761.475 270 00.475-.4761.4761.475 270 00-.4449-.4739.3187.318 270 01.027.1276.3187.318 270 01-.318.3187.3187.318 270 01-.2031-.074.4761.475 270 00-.0111.1016z"/>
        </clipPath>
        <clipPath id="heart-clip-path" clipPathUnits="objectBoundingBox">
            <path d="m 0.27446288,0.02497801 c -0.13778724,0 -0.24945956,0.12061671 -0.24945956,0.26932511 0,0.30247927 0.28243446,0.38179115 0.47499467,0.68067485 0.18220613,-0.2969646 0.47500535,-0.38796757 0.47500535,-0.68067485 0,-0.1487084 -0.1117578,-0.26932511 -0.24945955,-0.26932511 -0.0998009,0 -0.18570023,0.06363921 -0.2255458,0.15530394 -0.0395357,-0.09143312 -0.12536021,-0.15530394 -0.22527867,-0.15530394 z"/>
        </clipPath>
        <clipPath id="heart-upside-down-clip-path" clipPathUnits="objectBoundingBox">
            <path d="m0.27446 0.97542c-0.13779 0-0.24946-0.12062-0.24946-0.26933 0-0.30248 0.28243-0.38179 0.47499-0.68067 0.18221 0.29696 0.47501 0.38797 0.47501 0.68067 0 0.14871-0.11176 0.26933-0.24946 0.26933-0.099801 0-0.1857-0.063639-0.22555-0.1553-0.039536 0.091433-0.12536 0.1553-0.22528 0.1553z"/>
        </clipPath>
        <clipPath id="diamond-clip-path" clipPathUnits="objectBoundingBox">
            <path d="m0.57829 0.058879 0.36256 0.36263c0.04343 0.04344 0.04541 0.11139 0.0044 0.15236l-0.37145 0.37153c-0.04096 0.04097-0.1089 0.03899-0.15232-0.0044l-0.36256-0.36263c-0.04343-0.04344-0.04541-0.11139-0.0044-0.15236l0.37145-0.37153c0.04096-0.04097 0.1089-0.03899 0.15232 0.004399z"/>
        </clipPath>
        <clipPath id="square-clip-path" clipPathUnits="objectBoundingBox">
            <path d="m0.16833 0.025 0.66323 6.9e-5c0.07945 1e-5 0.1434 0.06033 0.14336 0.13529l7.1e-5 0.67938c9e-6 0.07492-0.06394 0.13523-0.14334 0.13526l-0.66323-7e-5c-0.07945-9e-6 -0.1434-0.06033-0.14336-0.13529l-7e-5 -0.67938c-9e-6 -0.07492 0.06394-0.13523 0.14333-0.13526z"/>
        </clipPath>
        <clipPath id="teardrop-clip-path" clipPathUnits="objectBoundingBox">
            <path d="M 0.975,0.64658972 C 0.975,0.82786247 0.76208656,0.975 0.50003926,0.975 0.23775109,0.975 0.02026146,0.82782823 0.02507851,0.64658972 0.03134067,0.40346614 0.29266543,0.30443291 0.50003926,0.025 0.72017826,0.29527426 0.975,0.46529985 0.975,0.64658972 Z"/>
        </clipPath>
        <clipPath id="star-clip-path" clipPathUnits="objectBoundingBox">
            <path d="m1 0.75-0.33401-0.0010179-0.16599 0.25102-0.16599-0.25102-0.33401 0.0010179 0.16802-0.25-0.16802-0.25 0.33401 0.0010179 0.16599-0.25102 0.16599 0.25102 0.33401-0.0010179-0.16802 0.25z"/>
        </clipPath>
        <clipPath id="clover-clip-path" clipPathUnits="objectBoundingBox">
            <path d="m0.29492 0a0.29492 0.28702 0 0 0-0.29492 0.28702 0.29492 0.28702 0 0 0 0.09774 0.21298 0.29492 0.28702 0 0 0-0.09774 0.21298 0.29492 0.28702 0 0 0 0.29492 0.28702 0.29492 0.28702 0 0 0 0.20508-0.0817 0.29492 0.28702 0 0 0 0.20509 0.0817 0.29492 0.28702 0 0 0 0.29491-0.28702 0.29492 0.28702 0 0 0-0.09722-0.21298 0.29492 0.28702 0 0 0 0.09722-0.21298 0.29492 0.28702 0 0 0-0.29491-0.28702 0.29492 0.28702 0 0 0-0.20463 0.0813 0.29492 0.28702 0 0 0-0.20554-0.0813z"/>
        </clipPath>
        <clipPath id="clover-rotated-clip-path" clipPathUnits="objectBoundingBox">
            <path d="m0.5 3.6997e-5a0.24116 0.24129 0 0 0-0.24116 0.24129 0.24116 0.24129 0 0 0 9.9936e-4 0.018179 0.24116 0.24129 0 0 0-0.018688-7.9594e-4 0.24116 0.24129 0 0 0-0.24116 0.24129 0.24116 0.24129 0 0 0 0.24116 0.2413 0.24116 0.24129 0 0 0 0.018688-0.0012999 0.24116 0.24129 0 0 0-9.9936e-4 0.018709 0.24116 0.24129 0 0 0 0.24116 0.2413 0.24116 0.24129 0 0 0 0.24116-0.2413 0.24116 0.24129 0 0 0-9.9936e-4 -0.018709 0.24116 0.24129 0 0 0 0.018688 0.0013 0.24116 0.24129 0 0 0 0.24116-0.2413 0.24116 0.24129 0 0 0-0.24116-0.24129 0.24116 0.24129 0 0 0-0.018688 0.0012999 0.24116 0.24129 0 0 0 9.9936e-4 -0.018719 0.24116 0.24129 0 0 0-0.24116-0.24129z"/>
        </clipPath>
    </defs>
</svg>
